<svg width="1200" height="900" viewBox="0 0 1200 900" fill="none" xmlns="http://www.w3.org/2000/svg">
  <rect width="1200" height="900" fill="#0F172A"/>
  <rect width="1200" height="900" fill="url(#bgGlow)" fill-opacity="0.9"/>
  <circle cx="1010" cy="148" r="220" fill="#4F46E5" fill-opacity="0.24"/>
  <circle cx="185" cy="760" r="260" fill="#10B981" fill-opacity="0.14"/>
  <circle cx="940" cy="760" r="150" fill="#F59E0B" fill-opacity="0.12"/>

  <g opacity="0.28">
    <path d="M116 166H1084" stroke="#E0E7FF" stroke-width="1"/>
    <path d="M116 286H1084" stroke="#E0E7FF" stroke-width="1"/>
    <path d="M116 406H1084" stroke="#E0E7FF" stroke-width="1"/>
    <path d="M116 526H1084" stroke="#E0E7FF" stroke-width="1"/>
    <path d="M116 646H1084" stroke="#E0E7FF" stroke-width="1"/>
    <path d="M236 90V812" stroke="#E0E7FF" stroke-width="1"/>
    <path d="M356 90V812" stroke="#E0E7FF" stroke-width="1"/>
    <path d="M476 90V812" stroke="#E0E7FF" stroke-width="1"/>
    <path d="M596 90V812" stroke="#E0E7FF" stroke-width="1"/>
    <path d="M716 90V812" stroke="#E0E7FF" stroke-width="1"/>
    <path d="M836 90V812" stroke="#E0E7FF" stroke-width="1"/>
    <path d="M956 90V812" stroke="#E0E7FF" stroke-width="1"/>
  </g>

  <g filter="url(#softShadow)">
    <rect x="155" y="145" width="610" height="455" rx="34" fill="#111827" stroke="#334155" stroke-width="2"/>
    <rect x="185" y="177" width="220" height="118" rx="24" fill="#064E3B"/>
    <rect x="430" y="177" width="295" height="118" rx="24" fill="#1E1B4B"/>
    <rect x="185" y="324" width="540" height="226" rx="28" fill="#1F2937"/>

    <rect x="215" y="207" width="96" height="12" rx="6" fill="#A7F3D0" fill-opacity="0.9"/>
    <rect x="215" y="239" width="140" height="22" rx="11" fill="#34D399"/>
    <rect x="462" y="207" width="112" height="12" rx="6" fill="#C4B5FD" fill-opacity="0.85"/>
    <rect x="462" y="239" width="206" height="22" rx="11" fill="#818CF8"/>

    <path d="M225 492C264 462 287 395 338 414C384 431 374 486 424 482C471 478 484 389 541 385C596 381 603 456 652 452C683 449 701 424 718 404" stroke="#22C55E" stroke-width="14" stroke-linecap="round"/>
    <path d="M225 492C264 462 287 395 338 414C384 431 374 486 424 482C471 478 484 389 541 385C596 381 603 456 652 452C683 449 701 424 718 404" stroke="#A7F3D0" stroke-width="4" stroke-linecap="round"/>
    <rect x="218" y="365" width="146" height="14" rx="7" fill="#64748B"/>
    <rect x="218" y="520" width="450" height="10" rx="5" fill="#334155"/>
    <rect x="218" y="520" width="305" height="10" rx="5" fill="#6366F1"/>
  </g>

  <g filter="url(#softShadow)">
    <rect x="715" y="288" width="272" height="456" rx="42" fill="#0B1220" stroke="#475569" stroke-width="2"/>
    <rect x="747" y="337" width="208" height="90" rx="24" fill="#312E81"/>
    <rect x="772" y="363" width="74" height="10" rx="5" fill="#C4B5FD"/>
    <rect x="772" y="390" width="132" height="18" rx="9" fill="#FFFFFF"/>
    <rect x="747" y="458" width="208" height="64" rx="20" fill="#111827"/>
    <rect x="747" y="540" width="208" height="64" rx="20" fill="#111827"/>
    <rect x="747" y="622" width="208" height="64" rx="20" fill="#111827"/>
    <circle cx="782" cy="490" r="18" fill="#10B981"/>
    <circle cx="782" cy="572" r="18" fill="#EF4444"/>
    <circle cx="782" cy="654" r="18" fill="#F59E0B"/>
    <rect x="820" y="479" width="82" height="10" rx="5" fill="#CBD5E1"/>
    <rect x="820" y="501" width="108" height="8" rx="4" fill="#475569"/>
    <rect x="820" y="561" width="98" height="10" rx="5" fill="#CBD5E1"/>
    <rect x="820" y="583" width="76" height="8" rx="4" fill="#475569"/>
    <rect x="820" y="643" width="72" height="10" rx="5" fill="#CBD5E1"/>
    <rect x="820" y="665" width="110" height="8" rx="4" fill="#475569"/>
  </g>

  <g filter="url(#coinShadow)">
    <circle cx="860" cy="192" r="76" fill="#F59E0B"/>
    <circle cx="860" cy="192" r="56" fill="#FDE68A"/>
    <path d="M860 151V233" stroke="#92400E" stroke-width="12" stroke-linecap="round"/>
    <path d="M831 170C846 155 889 158 890 185C891 215 835 199 832 225C829 249 874 251 893 235" stroke="#92400E" stroke-width="12" stroke-linecap="round"/>
  </g>

  <g filter="url(#coinShadow)">
    <circle cx="247" cy="657" r="56" fill="#6366F1"/>
    <circle cx="247" cy="657" r="38" fill="#C4B5FD"/>
    <path d="M226 657H268" stroke="#312E81" stroke-width="10" stroke-linecap="round"/>
    <path d="M247 636V678" stroke="#312E81" stroke-width="10" stroke-linecap="round"/>
  </g>

  <path d="M300 712C419 780 565 794 690 734" stroke="#8B5CF6" stroke-width="8" stroke-linecap="round" stroke-dasharray="18 22" opacity="0.55"/>

  <defs>
    <radialGradient id="bgGlow" cx="0" cy="0" r="1" gradientUnits="userSpaceOnUse" gradientTransform="translate(700 200) rotate(119.965) scale(737.658 983.195)">
      <stop stop-color="#1E1B4B"/>
      <stop offset="0.44" stop-color="#111827"/>
      <stop offset="1" stop-color="#020617"/>
    </radialGradient>
    <filter id="softShadow" x="103" y="101" width="936" height="695" filterUnits="userSpaceOnUse" color-interpolation-filters="sRGB">
      <feFlood flood-opacity="0" result="BackgroundImageFix"/>
      <feColorMatrix in="SourceAlpha" type="matrix" values="0 0 0 0 0 0 0 0 0 0 0 0 0 0 0 0 0 0 127 0" result="hardAlpha"/>
      <feOffset dy="14"/>
      <feGaussianBlur stdDeviation="24"/>
      <feComposite in2="hardAlpha" operator="out"/>
      <feColorMatrix type="matrix" values="0 0 0 0 0.010 0 0 0 0 0.016 0 0 0 0 0.039 0 0 0 0.42 0"/>
      <feBlend mode="normal" in2="BackgroundImageFix" result="effect1_dropShadow_1_1"/>
      <feBlend mode="normal" in="SourceGraphic" in2="effect1_dropShadow_1_1" result="shape"/>
    </filter>
    <filter id="coinShadow" x="163" y="108" width="781" height="633" filterUnits="userSpaceOnUse" color-interpolation-filters="sRGB">
      <feFlood flood-opacity="0" result="BackgroundImageFix"/>
      <feColorMatrix in="SourceAlpha" type="matrix" values="0 0 0 0 0 0 0 0 0 0 0 0 0 0 0 0 0 0 127 0" result="hardAlpha"/>
      <feOffset dy="12"/>
      <feGaussianBlur stdDeviation="14"/>
      <feComposite in2="hardAlpha" operator="out"/>
      <feColorMatrix type="matrix" values="0 0 0 0 0.010 0 0 0 0 0.016 0 0 0 0 0.039 0 0 0 0.32 0"/>
      <feBlend mode="normal" in2="BackgroundImageFix" result="effect1_dropShadow_2_1"/>
      <feBlend mode="normal" in="SourceGraphic" in2="effect1_dropShadow_2_1" result="shape"/>
    </filter>
  </defs>
</svg>
